<mxfile host="Electron" modified="2024-05-02T18:10:56.534Z" agent="Mozilla/5.0 (Windows NT 10.0; Win64; x64) AppleWebKit/537.36 (KHTML, like Gecko) draw.io/24.2.5 Chrome/120.0.6099.109 Electron/28.1.0 Safari/537.36" etag="xtH6EJashjUUwuNAx_yq" version="24.2.5" type="device">
  <diagram name="Page-1" id="59pCFFKjMBV4DCSAILzx">
    <mxGraphModel dx="1050" dy="621" grid="1" gridSize="10" guides="1" tooltips="1" connect="1" arrows="1" fold="1" page="1" pageScale="1" pageWidth="850" pageHeight="1100" math="0" shadow="0">
      <root>
        <mxCell id="0" />
        <mxCell id="1" parent="0" />
        <mxCell id="Hzeamor5YWnMFy3k2NTo-1" value="&lt;b&gt;&lt;font style=&quot;font-size: 17px;&quot;&gt;Booking Summary Page&lt;/font&gt;&lt;/b&gt;" style="text;strokeColor=none;align=center;fillColor=none;html=1;verticalAlign=middle;whiteSpace=wrap;rounded=0;" parent="1" vertex="1">
          <mxGeometry x="60" y="50" width="200" height="30" as="geometry" />
        </mxCell>
        <mxCell id="Hzeamor5YWnMFy3k2NTo-2" value="" style="rounded=0;whiteSpace=wrap;html=1;" parent="1" vertex="1">
          <mxGeometry x="20" y="100" width="810" height="660" as="geometry" />
        </mxCell>
        <mxCell id="Hzeamor5YWnMFy3k2NTo-4" value="" style="rounded=1;whiteSpace=wrap;html=1;" parent="1" vertex="1">
          <mxGeometry x="380" y="150" width="380" height="450" as="geometry" />
        </mxCell>
        <mxCell id="Hzeamor5YWnMFy3k2NTo-5" value="&lt;font style=&quot;font-size: 14px;&quot;&gt;&lt;b&gt;Pay Now&lt;/b&gt;&lt;/font&gt;" style="rounded=1;whiteSpace=wrap;html=1;fillColor=#d5e8d4;strokeColor=#82b366;" parent="1" vertex="1">
          <mxGeometry x="280" y="680" width="90" height="40" as="geometry" />
        </mxCell>
        <mxCell id="Hzeamor5YWnMFy3k2NTo-6" value="&lt;b&gt;&lt;font style=&quot;font-size: 14px;&quot;&gt;Cancel&lt;/font&gt;&lt;/b&gt;" style="rounded=1;whiteSpace=wrap;html=1;fillColor=#f8cecc;strokeColor=#b85450;" parent="1" vertex="1">
          <mxGeometry x="430" y="680" width="90" height="40" as="geometry" />
        </mxCell>
        <mxCell id="Hzeamor5YWnMFy3k2NTo-8" value="&lt;b&gt;&lt;font style=&quot;font-size: 15px;&quot;&gt;Booking Summary&lt;/font&gt;&lt;/b&gt;" style="text;strokeColor=none;align=center;fillColor=none;html=1;verticalAlign=middle;whiteSpace=wrap;rounded=0;" parent="1" vertex="1">
          <mxGeometry x="400" y="170" width="160" height="30" as="geometry" />
        </mxCell>
        <mxCell id="Hzeamor5YWnMFy3k2NTo-9" value="&lt;font style=&quot;font-size: 14px;&quot;&gt;Flight Price : 1400&lt;/font&gt;" style="text;strokeColor=none;align=center;fillColor=none;html=1;verticalAlign=middle;whiteSpace=wrap;rounded=0;" parent="1" vertex="1">
          <mxGeometry x="390" y="270" width="150" height="30" as="geometry" />
        </mxCell>
        <mxCell id="Hzeamor5YWnMFy3k2NTo-11" value="&lt;font style=&quot;font-size: 14px;&quot;&gt;Package Price : 78552&lt;/font&gt;" style="text;strokeColor=none;align=center;fillColor=none;html=1;verticalAlign=middle;whiteSpace=wrap;rounded=0;" parent="1" vertex="1">
          <mxGeometry x="400" y="230" width="160" height="30" as="geometry" />
        </mxCell>
        <mxCell id="Hzeamor5YWnMFy3k2NTo-13" value="&lt;font style=&quot;font-size: 14px;&quot;&gt;Hotel Price : 16025&lt;/font&gt;" style="text;strokeColor=none;align=center;fillColor=none;html=1;verticalAlign=middle;whiteSpace=wrap;rounded=0;" parent="1" vertex="1">
          <mxGeometry x="385" y="320" width="160" height="30" as="geometry" />
        </mxCell>
        <mxCell id="Hzeamor5YWnMFy3k2NTo-14" value="&lt;span style=&quot;font-size: 14px;&quot;&gt;GST :&lt;/span&gt;" style="text;strokeColor=none;align=center;fillColor=none;html=1;verticalAlign=middle;whiteSpace=wrap;rounded=0;" parent="1" vertex="1">
          <mxGeometry x="350" y="420" width="150" height="30" as="geometry" />
        </mxCell>
        <mxCell id="Hzeamor5YWnMFy3k2NTo-15" value="&lt;font style=&quot;font-size: 14px;&quot;&gt;Sevice Charge :&lt;/font&gt;" style="text;strokeColor=none;align=center;fillColor=none;html=1;verticalAlign=middle;whiteSpace=wrap;rounded=0;" parent="1" vertex="1">
          <mxGeometry x="380" y="370" width="150" height="30" as="geometry" />
        </mxCell>
        <mxCell id="Hzeamor5YWnMFy3k2NTo-16" value="&lt;span style=&quot;font-size: 14px;&quot;&gt;No of Passengers :&lt;/span&gt;" style="text;strokeColor=none;align=center;fillColor=none;html=1;verticalAlign=middle;whiteSpace=wrap;rounded=0;" parent="1" vertex="1">
          <mxGeometry x="390" y="470" width="150" height="30" as="geometry" />
        </mxCell>
        <mxCell id="Hzeamor5YWnMFy3k2NTo-17" value="" style="endArrow=none;html=1;rounded=0;exitX=0.003;exitY=0.849;exitDx=0;exitDy=0;exitPerimeter=0;entryX=0.997;entryY=0.845;entryDx=0;entryDy=0;entryPerimeter=0;" parent="1" source="Hzeamor5YWnMFy3k2NTo-4" target="Hzeamor5YWnMFy3k2NTo-4" edge="1">
          <mxGeometry width="50" height="50" relative="1" as="geometry">
            <mxPoint x="400" y="460" as="sourcePoint" />
            <mxPoint x="450" y="410" as="targetPoint" />
          </mxGeometry>
        </mxCell>
        <mxCell id="Hzeamor5YWnMFy3k2NTo-18" value="&lt;b&gt;&lt;font style=&quot;font-size: 16px;&quot;&gt;Total :&lt;/font&gt;&lt;/b&gt;" style="text;strokeColor=none;align=center;fillColor=none;html=1;verticalAlign=middle;whiteSpace=wrap;rounded=0;" parent="1" vertex="1">
          <mxGeometry x="360" y="550" width="160" height="30" as="geometry" />
        </mxCell>
      </root>
    </mxGraphModel>
  </diagram>
</mxfile>
